<mxfile host="app.diagrams.net" modified="2023-07-12T10:57:53.381Z" agent="Mozilla/5.0 (Macintosh; Intel Mac OS X 10_15_7) AppleWebKit/605.1.15 (KHTML, like Gecko) Version/16.4 Safari/605.1.15" etag="gomaldrdkJcARlgzJ7tD" version="21.6.2" type="device">
  <diagram id="814oV0oYVunFL0rAsWYE" name="Page-1">
    <mxGraphModel dx="522" dy="324" grid="1" gridSize="10" guides="1" tooltips="1" connect="1" arrows="1" fold="1" page="1" pageScale="1" pageWidth="827" pageHeight="1169" math="0" shadow="0">
      <root>
        <mxCell id="0" />
        <mxCell id="1" parent="0" />
        <mxCell id="hgtoQCEPwnBt9p70s2Xu-11" value="" style="rounded=1;whiteSpace=wrap;html=1;dashed=1;fillColor=none;" parent="1" vertex="1">
          <mxGeometry x="110" y="59" width="560" height="151" as="geometry" />
        </mxCell>
        <mxCell id="hgtoQCEPwnBt9p70s2Xu-9" value="User" style="shape=umlActor;verticalLabelPosition=bottom;verticalAlign=top;html=1;outlineConnect=0;" parent="1" vertex="1">
          <mxGeometry x="20" y="110" width="30" height="60" as="geometry" />
        </mxCell>
        <mxCell id="hgtoQCEPwnBt9p70s2Xu-25" value="Nuclio&amp;nbsp;" style="text;html=1;strokeColor=none;fillColor=none;align=center;verticalAlign=middle;whiteSpace=wrap;rounded=0;dashed=1;" parent="1" vertex="1">
          <mxGeometry x="140" y="59" width="60" height="30" as="geometry" />
        </mxCell>
        <mxCell id="hgtoQCEPwnBt9p70s2Xu-31" value="&lt;br&gt;&lt;br&gt;Nuclio&lt;br&gt;Dashboard" style="rounded=1;whiteSpace=wrap;html=1;" parent="1" vertex="1">
          <mxGeometry x="200" y="105" width="120" height="80" as="geometry" />
        </mxCell>
        <mxCell id="hgtoQCEPwnBt9p70s2Xu-45" value="" style="endArrow=classic;html=1;rounded=0;entryX=0;entryY=0.5;entryDx=0;entryDy=0;exitX=1;exitY=0.5;exitDx=0;exitDy=0;dashed=1;" parent="1" source="hgtoQCEPwnBt9p70s2Xu-31" target="hgtoQCEPwnBt9p70s2Xu-5" edge="1">
          <mxGeometry width="50" height="50" relative="1" as="geometry">
            <mxPoint x="496" y="121" as="sourcePoint" />
            <mxPoint x="420" y="150" as="targetPoint" />
            <Array as="points">
              <mxPoint x="410" y="145" />
              <mxPoint x="410" y="124" />
            </Array>
          </mxGeometry>
        </mxCell>
        <mxCell id="hgtoQCEPwnBt9p70s2Xu-46" value="" style="endArrow=classic;html=1;rounded=0;entryX=0;entryY=0.5;entryDx=0;entryDy=0;dashed=1;" parent="1" target="hgtoQCEPwnBt9p70s2Xu-31" edge="1">
          <mxGeometry width="50" height="50" relative="1" as="geometry">
            <mxPoint x="60" y="145" as="sourcePoint" />
            <mxPoint x="420" y="150" as="targetPoint" />
            <Array as="points" />
          </mxGeometry>
        </mxCell>
        <mxCell id="hgtoQCEPwnBt9p70s2Xu-47" value="" style="endArrow=classic;html=1;rounded=0;entryX=0;entryY=0.5;entryDx=0;entryDy=0;exitX=1;exitY=0.5;exitDx=0;exitDy=0;dashed=1;" parent="1" source="hgtoQCEPwnBt9p70s2Xu-31" target="hgtoQCEPwnBt9p70s2Xu-7" edge="1">
          <mxGeometry width="50" height="50" relative="1" as="geometry">
            <mxPoint x="370" y="200" as="sourcePoint" />
            <mxPoint x="420" y="150" as="targetPoint" />
            <Array as="points">
              <mxPoint x="410" y="145" />
              <mxPoint x="410" y="166" />
            </Array>
          </mxGeometry>
        </mxCell>
        <mxCell id="vzk0dLUXovs9DNKH755f-13" value="mange&amp;nbsp;&lt;br&gt;functions" style="edgeLabel;html=1;align=center;verticalAlign=middle;resizable=0;points=[];" vertex="1" connectable="0" parent="hgtoQCEPwnBt9p70s2Xu-47">
          <mxGeometry x="-0.5088" relative="1" as="geometry">
            <mxPoint x="-2" as="offset" />
          </mxGeometry>
        </mxCell>
        <mxCell id="hgtoQCEPwnBt9p70s2Xu-41" value="" style="group" parent="1" vertex="1" connectable="0">
          <mxGeometry x="510" y="108.75" width="300" height="72.5" as="geometry" />
        </mxCell>
        <mxCell id="hgtoQCEPwnBt9p70s2Xu-5" value="&amp;nbsp; &amp;nbsp;Function" style="rounded=1;whiteSpace=wrap;html=1;" parent="hgtoQCEPwnBt9p70s2Xu-41" vertex="1">
          <mxGeometry width="90" height="30" as="geometry" />
        </mxCell>
        <mxCell id="hgtoQCEPwnBt9p70s2Xu-7" value="&amp;nbsp; &amp;nbsp; Function" style="rounded=1;whiteSpace=wrap;html=1;" parent="hgtoQCEPwnBt9p70s2Xu-41" vertex="1">
          <mxGeometry y="42.5" width="90" height="30" as="geometry" />
        </mxCell>
        <mxCell id="hgtoQCEPwnBt9p70s2Xu-26" value="Container Repository&lt;br&gt;(e.g. DockerHub)" style="rounded=1;whiteSpace=wrap;html=1;" parent="hgtoQCEPwnBt9p70s2Xu-41" vertex="1">
          <mxGeometry x="180" y="2.5" width="120" height="60" as="geometry" />
        </mxCell>
        <mxCell id="hgtoQCEPwnBt9p70s2Xu-27" value="" style="endArrow=classic;html=1;rounded=0;entryX=0;entryY=0.5;entryDx=0;entryDy=0;exitX=1;exitY=0.5;exitDx=0;exitDy=0;dashed=1;" parent="hgtoQCEPwnBt9p70s2Xu-41" source="hgtoQCEPwnBt9p70s2Xu-5" target="hgtoQCEPwnBt9p70s2Xu-26" edge="1">
          <mxGeometry width="50" height="50" relative="1" as="geometry">
            <mxPoint x="-130" y="105" as="sourcePoint" />
            <mxPoint x="-80" y="55" as="targetPoint" />
            <Array as="points">
              <mxPoint x="110" y="15" />
              <mxPoint x="110" y="33" />
            </Array>
          </mxGeometry>
        </mxCell>
        <mxCell id="hgtoQCEPwnBt9p70s2Xu-29" value="" style="endArrow=classic;html=1;rounded=0;dashed=1;entryX=0;entryY=0.5;entryDx=0;entryDy=0;exitX=1;exitY=0.5;exitDx=0;exitDy=0;" parent="hgtoQCEPwnBt9p70s2Xu-41" source="hgtoQCEPwnBt9p70s2Xu-7" target="hgtoQCEPwnBt9p70s2Xu-26" edge="1">
          <mxGeometry width="50" height="50" relative="1" as="geometry">
            <mxPoint x="-130" y="105" as="sourcePoint" />
            <mxPoint x="-80" y="55" as="targetPoint" />
            <Array as="points">
              <mxPoint x="110" y="58" />
              <mxPoint x="110" y="33" />
            </Array>
          </mxGeometry>
        </mxCell>
        <mxCell id="hgtoQCEPwnBt9p70s2Xu-30" value="pull image" style="edgeLabel;html=1;align=center;verticalAlign=middle;resizable=0;points=[];" parent="hgtoQCEPwnBt9p70s2Xu-29" vertex="1" connectable="0">
          <mxGeometry x="0.3667" y="4" relative="1" as="geometry">
            <mxPoint x="-1" y="-4" as="offset" />
          </mxGeometry>
        </mxCell>
        <mxCell id="vzk0dLUXovs9DNKH755f-7" value="" style="group" vertex="1" connectable="0" parent="hgtoQCEPwnBt9p70s2Xu-41">
          <mxGeometry x="8" y="50" width="15" height="15" as="geometry" />
        </mxCell>
        <mxCell id="vzk0dLUXovs9DNKH755f-8" value="" style="ellipse;whiteSpace=wrap;html=1;aspect=fixed;" vertex="1" parent="vzk0dLUXovs9DNKH755f-7">
          <mxGeometry width="15" height="15" as="geometry" />
        </mxCell>
        <mxCell id="vzk0dLUXovs9DNKH755f-9" value="" style="shape=image;verticalLabelPosition=bottom;labelBackgroundColor=default;verticalAlign=top;aspect=fixed;imageAspect=0;image=data:image/png,iVBORw0KGgoAAAANSUhEUgAAAP8AAADGCAMAAAAqo6adAAAAe1BMVEX///8AAABFRUUSEhJ3d3cICAi/v7+Li4vx8fHPz8+np6e1tbX5+fnY2Njo6OjKysri4uKurq5fX1+fn59aWlpwcHA8PDzU1NQdHR1OTk6ZmZkwMDChoaFVVVXz8/Otra2BgYEjIyNnZ2czMzORkZF2dnY5OTlBQUEZGRkNWufDAAAJfklEQVR4nNVd61oiMQzFyw53UHdVRITxgvr+T7gfgjNJTueedML5J4xtDtOmaZKmg4EmRvNlMp0m4xvVVs8Cy/Xb90WO1/101LdI0bDd/bsI4Gsy61uyGEheQuSPuJ/3LZ01NsXkf/DPjy5YJJthmg43yUKtySr2B6RqvXXB8p6ItFqrKKekBvsDEo3OOgHf07Bzm4vLmvQvLq4VKHTANCTTquMs2JG2XvfryW4zLFaEXzpEWmH7VCBUJ830lrczySdT8lDQ13NnGm3xSIZhcrMYp/nf29aNzj6zRlL+TZFO6GsE3GYS7E/WyDr75LJto7OrrI0dfBm0hfrSAfksnf5+NMtlaqmYCf2QGh2Gf4A+VoEk0PsoF6nlAHjOGghP64/wD9Cusy5YZH2v8w/XRKRWGoCo+XH4iX2Q/22bzjrhNfSiqUgF8peCDO/Pome+QvwfWnTWCbmqJ2s9m53T4n8uwrLOv2+DAyDydnCedbwnnzKJmvOf1SMUNLkibwZzNUUsnTGTqLlOptuIp5Ln7gL8l805dEC+8lMtze2TxibgnP7337InA/wfG3Pogrxfovw5gT+NG/2szYd1dETU+U+WOablqZdu0rTRpAGfv5L+S9PeOqFITqIAmps/75TPd8XDUgVEHf7k9QsjLdMLzddjrjzvqh7nm8H7xt11Aek4FV/dHHcopdorDL61qXah0B8g7g6YOnwCdue8VYhixOjX0R75D1a2VhqAyqnmgV1z/nWMh0nxO7AE09Nqra44/3r6bD7d3UaPAtCJp7btuOH09caVOpikqVarclvvN8B3TcVUm3rPgr/f6B4TU2vywZ5WqV197EzEBM+uVsPqYFbqq1ar4NbUalgbXE+rmZ0Q7tJqWBv8RW20mpX03fLnUmo5XUaS/pVSw9pYcjG1Vumx5L9Salgb91xMrWbBo6mmWJXBpVTbd60l//5CuqUQy3Sq1W4q+b9rtawL4XVSs37fJP/C4E+vmAkp1baekEURPZxVC7dCSrVNCoT0+sxpKYYUU63hV8m/dfaEJRZCyH9qLX+fBX+5Seme5vaLq7PgL4VsEeAuwFnwByNNz/N4FvxBSen5qM6B/1LKqLhHPQf+71JGPfV/Dvwx91JP/Z8Df6CvGXbyv/7DDqV9yP3y4o8ENg6PnB6sjIvbIJR12db5E8zfq4t++F+HRGnbWP2jDT74z24D47PDFD0b/rPFY7K+hnXvhLRts2fA/+b+7nJVIcnLx1AgrXfq5Qz4gz+yHuo1XnSMpRYUja4SFByzqEDNHLzh/logBQWzSuUzR+zX1e0roN27aZH0dYIz+08mo9RE+/2wM/7BBPNqtO/QGf/7ELtKdFBNzvgvE4kJsJ3CMx1StpzxR+CMUG3ePX+YEW+qzbvnD69fdx32zl9GPrSP23jnj9O//fHmELzzx/2/bvve+YN/Tlf9eecP6Vl6iW9HOOePvu82Z3tL4Jw/pOdop2c75y+T09XTs3zzl2k/+mWHfPPHyKde5P8I3/yx5ob26Rzf/NFhqd2Db/5AX/2wsWv+OP3VnbCu+WMwQL3Wgmv+WOJL/XCaa/5AXz853zP/R+CfqvfhmT+UmlC3fnzzx1igXonPX3jmD/QNzqY55o+lZpR9Pwc45o+Rn8aFbarhmD8mvhkUXHDMP8b0d8wfUwEsMlD88pdHnrpkeRTDL39MBbCoNOWXf5Tp75c/Bj5NJHPLHwOfJglobvlj4FM58nOEW/4Q+LQpTOGVPwY+bQ7meuWPgc8Pk3688sfIh02ZWa/8IfBpVJfGKX8MfBqdy3fKHyMfNtPfK3889WVUZdopf4x8GHXklD/QtxLLJ3+MfBhNf6f8MfJhYvwPvPLHyIdVTz75A32zOssu+aPr0+zwmUv+O+BvVmTeJX90fZp15ZI/HMq0O3vqkb950jeBR/64+bGrSe6RP6Z92fXlkT9cMmQQ9/+FR/7w+g2vWXDIH9WfftpPBof8Qf01v8+pPhzyB/VnecemQ/6w+bO8YtMhf5j+uic+Ofzxh8C3aUVmf/wh8qVY7Q7hjz+4vk3vV/THH64bN+3NH38pkO39gu74g/qz2/se4I4/qD/bW8bc8Y98H487/jLyZ3y/pDv+Uh79Iy8M3viD69/4Ojpv/GXao/V1NN74y4IPpsbvwB9/eeLb+nJxb/ylONb9OeMvz3yZF111xl8e+jC/YNcZf5n1bX4ZqzP+Iu3T/jIyZ/yFMPY1d33xl3lf9ncx++IvjrxaBj5OAP6Rb3TnEIkf1sbfwBt/IY1Z1k8OSDWxdbeVQ2a9R+hS0u/rmo8fiMhnGqFL4L+P0GkRRNprhOGP/NMInRZBJH7E6BL4WyVaNxcmiiTA36DGRF0I17+98TMI8LcMtleAu/7jXEQM/G3DDaXgrv84AxH4m+84i8Gvp7HMesiA5+xi9FoAJkccO2Qr6fd4/TP3fVk7Po+AaKtlrlUF+OYvTp8Qbulx+WPWT5zbhrDGVo/qP772GwzGftQfexWGGc8MMtc0ziVfQbDNT6xhKMONu0j9BkAD/w9KbT4my/JfUtaYM8y0rgIVQ8cIP2XSPZW0JpLtTFMty0GN/5VGg6P8GsVibSIcjra5VqWgkR+NnA9m2RX+ACLbpkfjn0jxrdEevzy06MVy+j1qf7oQa7x+eYQ0bE+I7U8cm3u0CFSxJnkfKikvr4J/GnyKm38qaqcC2x+i7/CKld8CVo8LVg7n4XbjVLMDMntLhBmI9lcJwGD5qODGhoXbrzQ6ri0WjzMSPaxigmD1vODGnsWb7D1/bFTSHR7Zhup4ffH9h9Y2Jo9RgSUKvtqSL3IzRGkQYgGV0ARg1q+96SucDXmH5D0obXzQrxfyJ38VDEcjbIoGZD4u1CLegbvTIZxG30cMv58wtrPP81VIa98XqqCDCwstsB3D8uXTPxtwZPTrXe8RmABSwVPjx6q8EAPjn0/HfJ+mGfHCAoryJZPUB/M0wx+8BWXJox665neAP9XxM6IhLAprB0CdDdmxjpy+sv0Brs0DskVwGvrQGFSik6ab5xaY+uYLy2gccPcxmazZSIyz6zuAmptvo8F2SeQw8Hji5ZEBPET0eQSs0hOeTaTAKpKASFP/BLzS4ojUqL/iH/yIl9gOr8uQFFd2q+8CbxDM8Rll1ecIjABbp2sCGZ4n3PXAfgA782/7xScJDLrPTX+u3iQbA0/rOHGuxYTGli/TpEc/9w9G8/HjPK4Qo/lyOk2WN+o3CHrEfxX1WSEgHd15AAAAAElFTkSuQmCC;clipPath=inset(0% 0% 0% 55.49%);" vertex="1" parent="vzk0dLUXovs9DNKH755f-7">
          <mxGeometry x="4.810000000000059" y="2.829999999999984" width="5.38" height="9.34" as="geometry" />
        </mxCell>
        <mxCell id="vzk0dLUXovs9DNKH755f-4" value="" style="group" vertex="1" connectable="0" parent="hgtoQCEPwnBt9p70s2Xu-41">
          <mxGeometry x="8" y="7.5" width="15" height="15" as="geometry" />
        </mxCell>
        <mxCell id="vzk0dLUXovs9DNKH755f-2" value="" style="ellipse;whiteSpace=wrap;html=1;aspect=fixed;" vertex="1" parent="vzk0dLUXovs9DNKH755f-4">
          <mxGeometry width="15" height="15" as="geometry" />
        </mxCell>
        <mxCell id="vzk0dLUXovs9DNKH755f-3" value="" style="shape=image;verticalLabelPosition=bottom;labelBackgroundColor=default;verticalAlign=top;aspect=fixed;imageAspect=0;image=data:image/png,iVBORw0KGgoAAAANSUhEUgAAAP8AAADGCAMAAAAqo6adAAAAe1BMVEX///8AAABFRUUSEhJ3d3cICAi/v7+Li4vx8fHPz8+np6e1tbX5+fnY2Njo6OjKysri4uKurq5fX1+fn59aWlpwcHA8PDzU1NQdHR1OTk6ZmZkwMDChoaFVVVXz8/Otra2BgYEjIyNnZ2czMzORkZF2dnY5OTlBQUEZGRkNWufDAAAJfklEQVR4nNVd61oiMQzFyw53UHdVRITxgvr+T7gfgjNJTueedML5J4xtDtOmaZKmg4EmRvNlMp0m4xvVVs8Cy/Xb90WO1/101LdI0bDd/bsI4Gsy61uyGEheQuSPuJ/3LZ01NsXkf/DPjy5YJJthmg43yUKtySr2B6RqvXXB8p6ItFqrKKekBvsDEo3OOgHf07Bzm4vLmvQvLq4VKHTANCTTquMs2JG2XvfryW4zLFaEXzpEWmH7VCBUJ830lrczySdT8lDQ13NnGm3xSIZhcrMYp/nf29aNzj6zRlL+TZFO6GsE3GYS7E/WyDr75LJto7OrrI0dfBm0hfrSAfksnf5+NMtlaqmYCf2QGh2Gf4A+VoEk0PsoF6nlAHjOGghP64/wD9Cusy5YZH2v8w/XRKRWGoCo+XH4iX2Q/22bzjrhNfSiqUgF8peCDO/Pome+QvwfWnTWCbmqJ2s9m53T4n8uwrLOv2+DAyDydnCedbwnnzKJmvOf1SMUNLkibwZzNUUsnTGTqLlOptuIp5Ln7gL8l805dEC+8lMtze2TxibgnP7337InA/wfG3Pogrxfovw5gT+NG/2szYd1dETU+U+WOablqZdu0rTRpAGfv5L+S9PeOqFITqIAmps/75TPd8XDUgVEHf7k9QsjLdMLzddjrjzvqh7nm8H7xt11Aek4FV/dHHcopdorDL61qXah0B8g7g6YOnwCdue8VYhixOjX0R75D1a2VhqAyqnmgV1z/nWMh0nxO7AE09Nqra44/3r6bD7d3UaPAtCJp7btuOH09caVOpikqVarclvvN8B3TcVUm3rPgr/f6B4TU2vywZ5WqV197EzEBM+uVsPqYFbqq1ar4NbUalgbXE+rmZ0Q7tJqWBv8RW20mpX03fLnUmo5XUaS/pVSw9pYcjG1Vumx5L9Salgb91xMrWbBo6mmWJXBpVTbd60l//5CuqUQy3Sq1W4q+b9rtawL4XVSs37fJP/C4E+vmAkp1baekEURPZxVC7dCSrVNCoT0+sxpKYYUU63hV8m/dfaEJRZCyH9qLX+fBX+5Seme5vaLq7PgL4VsEeAuwFnwByNNz/N4FvxBSen5qM6B/1LKqLhHPQf+71JGPfV/Dvwx91JP/Z8Df6CvGXbyv/7DDqV9yP3y4o8ENg6PnB6sjIvbIJR12db5E8zfq4t++F+HRGnbWP2jDT74z24D47PDFD0b/rPFY7K+hnXvhLRts2fA/+b+7nJVIcnLx1AgrXfq5Qz4gz+yHuo1XnSMpRYUja4SFByzqEDNHLzh/logBQWzSuUzR+zX1e0roN27aZH0dYIz+08mo9RE+/2wM/7BBPNqtO/QGf/7ELtKdFBNzvgvE4kJsJ3CMx1StpzxR+CMUG3ePX+YEW+qzbvnD69fdx32zl9GPrSP23jnj9O//fHmELzzx/2/bvve+YN/Tlf9eecP6Vl6iW9HOOePvu82Z3tL4Jw/pOdop2c75y+T09XTs3zzl2k/+mWHfPPHyKde5P8I3/yx5ob26Rzf/NFhqd2Db/5AX/2wsWv+OP3VnbCu+WMwQL3Wgmv+WOJL/XCaa/5AXz853zP/R+CfqvfhmT+UmlC3fnzzx1igXonPX3jmD/QNzqY55o+lZpR9Pwc45o+Rn8aFbarhmD8mvhkUXHDMP8b0d8wfUwEsMlD88pdHnrpkeRTDL39MBbCoNOWXf5Tp75c/Bj5NJHPLHwOfJglobvlj4FM58nOEW/4Q+LQpTOGVPwY+bQ7meuWPgc8Pk3688sfIh02ZWa/8IfBpVJfGKX8MfBqdy3fKHyMfNtPfK3889WVUZdopf4x8GHXklD/QtxLLJ3+MfBhNf6f8MfJhYvwPvPLHyIdVTz75A32zOssu+aPr0+zwmUv+O+BvVmTeJX90fZp15ZI/HMq0O3vqkb950jeBR/64+bGrSe6RP6Z92fXlkT9cMmQQ9/+FR/7w+g2vWXDIH9WfftpPBof8Qf01v8+pPhzyB/VnecemQ/6w+bO8YtMhf5j+uic+Ofzxh8C3aUVmf/wh8qVY7Q7hjz+4vk3vV/THH64bN+3NH38pkO39gu74g/qz2/se4I4/qD/bW8bc8Y98H487/jLyZ3y/pDv+Uh79Iy8M3viD69/4Ojpv/GXao/V1NN74y4IPpsbvwB9/eeLb+nJxb/ylONb9OeMvz3yZF111xl8e+jC/YNcZf5n1bX4ZqzP+Iu3T/jIyZ/yFMPY1d33xl3lf9ncx++IvjrxaBj5OAP6Rb3TnEIkf1sbfwBt/IY1Z1k8OSDWxdbeVQ2a9R+hS0u/rmo8fiMhnGqFL4L+P0GkRRNprhOGP/NMInRZBJH7E6BL4WyVaNxcmiiTA36DGRF0I17+98TMI8LcMtleAu/7jXEQM/G3DDaXgrv84AxH4m+84i8Gvp7HMesiA5+xi9FoAJkccO2Qr6fd4/TP3fVk7Po+AaKtlrlUF+OYvTp8Qbulx+WPWT5zbhrDGVo/qP772GwzGftQfexWGGc8MMtc0ziVfQbDNT6xhKMONu0j9BkAD/w9KbT4my/JfUtaYM8y0rgIVQ8cIP2XSPZW0JpLtTFMty0GN/5VGg6P8GsVibSIcjra5VqWgkR+NnA9m2RX+ACLbpkfjn0jxrdEevzy06MVy+j1qf7oQa7x+eYQ0bE+I7U8cm3u0CFSxJnkfKikvr4J/GnyKm38qaqcC2x+i7/CKld8CVo8LVg7n4XbjVLMDMntLhBmI9lcJwGD5qODGhoXbrzQ6ri0WjzMSPaxigmD1vODGnsWb7D1/bFTSHR7Zhup4ffH9h9Y2Jo9RgSUKvtqSL3IzRGkQYgGV0ARg1q+96SucDXmH5D0obXzQrxfyJ38VDEcjbIoGZD4u1CLegbvTIZxG30cMv58wtrPP81VIa98XqqCDCwstsB3D8uXTPxtwZPTrXe8RmABSwVPjx6q8EAPjn0/HfJ+mGfHCAoryJZPUB/M0wx+8BWXJox665neAP9XxM6IhLAprB0CdDdmxjpy+sv0Brs0DskVwGvrQGFSik6ab5xaY+uYLy2gccPcxmazZSIyz6zuAmptvo8F2SeQw8Hji5ZEBPET0eQSs0hOeTaTAKpKASFP/BLzS4ojUqL/iH/yIl9gOr8uQFFd2q+8CbxDM8Rll1ecIjABbp2sCGZ4n3PXAfgA782/7xScJDLrPTX+u3iQbA0/rOHGuxYTGli/TpEc/9w9G8/HjPK4Qo/lyOk2WN+o3CHrEfxX1WSEgHd15AAAAAElFTkSuQmCC;clipPath=inset(0% 0% 0% 55.49%);" vertex="1" parent="vzk0dLUXovs9DNKH755f-4">
          <mxGeometry x="4.810000000000059" y="2.829999999999984" width="5.38" height="9.34" as="geometry" />
        </mxCell>
        <mxCell id="vzk0dLUXovs9DNKH755f-10" value="" style="shape=image;verticalLabelPosition=bottom;labelBackgroundColor=default;verticalAlign=top;aspect=fixed;imageAspect=0;image=data:image/jpeg,/9j/4AAQSkZJRgABAQAAAQABAAD/4gKgSUNDX1BST0ZJTEUAAQEAAAKQbGNtcwQwAABtbnRyUkdCIFhZWiAH4QAKAB8AFAAVACBhY3NwQVBQTAAAAAAAAAAAAAAAAAAAAAAAAAAAAAAAAAAA9tYAAQAAAADTLWxjbXMAAAAAAAAAAAAAAAAAAAAAAAAAAAAAAAAAAAAAAAAAAAAAAAAAAAAAAAAAAAAAAAtkZXNjAAABCAAAADhjcHJ0AAABQAAAAE53dHB0AAABkAAAABRjaGFkAAABpAAAACxyWFlaAAAB0AAAABRiWFlaAAAB5AAAABRnWFlaAAAB+AAAABRyVFJDAAACDAAAACBnVFJDAAACLAAAACBiVFJDAAACTAAAACBjaHJtAAACbAAAACRtbHVjAAAAAAAAAAEAAAAMZW5VUwAAABwAAAAcAHMAUgBHAEIAIABiAHUAaQBsAHQALQBpAG4AAG1sdWMAAAAAAAAAAQAAAAxlblVTAAAAMgAAABwATgBvACAAYwBvAHAAeQByAGkAZwBoAHQALAAgAHUAcwBlACAAZgByAGUAZQBsAHkAAAAAWFlaIAAAAAAAAPbWAAEAAAAA0y1zZjMyAAAAAAABDEoAAAXj///zKgAAB5sAAP2H///7ov///aMAAAPYAADAlFhZWiAAAAAAAABvlAAAOO4AAAOQWFlaIAAAAAAAACSdAAAPgwAAtr5YWVogAAAAAAAAYqUAALeQAAAY3nBhcmEAAAAAAAMAAAACZmYAAPKnAAANWQAAE9AAAApbcGFyYQAAAAAAAwAAAAJmZgAA8qcAAA1ZAAAT0AAACltwYXJhAAAAAAADAAAAAmZmAADypwAADVkAABPQAAAKW2Nocm0AAAAAAAMAAAAAo9cAAFR7AABMzQAAmZoAACZmAAAPXP/bAEMABQMEBAQDBQQEBAUFBQYHDAgHBwcHDwsLCQwRDxISEQ8RERMWHBcTFBoVEREYIRgaHR0fHx8TFyIkIh4kHB4fHv/bAEMBBQUFBwYHDggIDh4UERQeHh4eHh4eHh4eHh4eHh4eHh4eHh4eHh4eHh4eHh4eHh4eHh4eHh4eHh4eHh4eHh4eHv/CABEIAZABkAMBIgACEQEDEQH/xAAbAAEBAQEBAQEBAAAAAAAAAAAABwYFBAMBAv/EABoBAQADAQEBAAAAAAAAAAAAAAADBAUCAQb/2gAMAwEAAhADEAAAAbKAAAAAAAc73zop9lLdet56ZLcG05PBTx9DzfBJwHXn39PPc+97rYtH3TdDEUEt/RPV1JqC53RqWA89AAAAAAAAAAAHi989vGwuTv1dRmPxo1A75AAAAAAAA/dPl3HVm7MA1mdbqbxe2haDz0AAAAAAAA/iaSx6Ca/Bs54TRgAAAAAAAAAAAfelS5BJf0xpePof2IpAAAAAAHxSKxD/AHwDazg68AAAAAAAAAAAAAAaDPufbz9o7XMXR+wrzAAAAP4/uYzR83gG5mB14AAAAAAAAAAAAAAAA0Gfc+3z+5jTsLTCKQAAeL3zPS77/DdzAmjAAAAAAAAAAAAAAAAAAVGXfeGS8PF7cLTDz0BLN1GdCoGpSAAAAAAAAAAAAAAAAAAAA1lTgFmy7vZGfbHO98nGY/fz6DKDvkAAAAAAAAAAAAAAAAAAABqMv+8dX5zuj8/qp9QYlbr80bFAAAAAAAAAAAAAAAAAAAAAADfUGJ2zHv8ANiVNmVuALtcAAAAAAAAAAAAApWTry8E9k8XjbfGx9/IS8AAAAALdEabSscbF97gzxhNGAAAAAAAAAAAA/fz9L5OaNOcXRxG8wf31aN4kv95mrN/Iv1gAAAAG0xfehk8PP+3xk4Drx1+RUq8uI5dh+lWbE+nQ/aKSccC/zueLCejz6m5X/MxfoVWm8ou12lzV7pzxHxbPGTxv69Fb46wPZ3PEoWs7naV2vfID+6zJ6VO+TmjTnJv4j7fHTa9D+8vfolVm5p0LlfxaehevMu4nzaX18dSnm36c2YcOL1YB0Of9uffiOvAFTllTp2NZK6NDq8oalKl62ZVTF0YFp+J29OlVoXdIXSs+QalL9vcEvebbm2M2eNtQU/R/fC5l7HeA2s1p8w567nE/P33y+TmjTnH0MRpszptSjWYnbInQtcyvS25yc8uPafHSxhcg3lCgdzyb0j41FnV+qE8YH2+PQ5/PodeKnLKnTse6PWCP8+herairyir49+HdvidvQq1aF3SHU7HhGpS/b3DLtmXJnmtLj7UF8ltQn+dcwQ2s4B+/n6Xyc0ac4ujiNNmdNqUazE7ZE6Fr+7TEbcSPOazJ36oTcLTFrln2s7L6VNZeAtwPt8ehz77uDtMXH2E0apyyp07Htj9gj/PoXq2oq8oq+Pfh3Q5/j1KV9ktF9mPoQlSPto1ONSuJ2c25NcZs8ZrUK50ZLYM63E/hbMvbgnfY2es46k3C3+Asw3yc0ac5l3EabM6bUo1mJ2yJ0LXMtMW7VuCjyC6+ClZi6h+25XzNV/nHULWWzhr54d+O9wdpDJ2JnbYlBIF2u0+Ycda3JAHfPu2s8Q9/T5kvHs288Rd1Pk4JH399tgkvHW5J3y9Xle+bvry1WmqGeyD1+/hZh3uZ5CGR7fEljoWA/hH2EvHt2WAQ91P4zJDJpc0WYQ78AU2ZW6lY6MSts9qT4IbFAAAAAAAAAAAAAAAAAAAAAADp2yfUHHvub0lSxAfzT5j6DKDvkAAAAAAAAAAAAAAAAAAAB+/mn46o/RPn9UPPeLGr/LNCpkxqUgAAAAAAAAAAAAAAAAAAAFmwtTy7oZ9sB4va98g/wqEv3cwJowAAAAAAAAAAAAAAAAAH3+FRhk0PtMLTDz0ABMad/E0cDd/gbmYHXgAAAAAAAAAAAAAAAA7/AD70qd/H94emEMgAAAHxkNk+NiGDO/wNrODrwAAAAAAAAAAAAAAd/n3+K6+2LohXmAAAAAA/iZ09NHAFQm2xn/ATRgAAAAAAAAAAAH3pUMmfpf8AbG0AikAAAAAAAAeL2vfJZk7/AMW/VjTT5nRqfg75AAAAAAAAP3TcdZjWbntZ1vxe0oWg89AAAAAAAAAAAc3pPfJ7lLat14AtuetwTNtOTPFwXQ8snPxHXh9vVz7z3e60feLUzQwSSTV0JUn5vSKlgPPQAAAAAP/EACwQAAEDAwAJBAMBAQAAAAAAAAQCAwUAAQYQEhMUIDQ1QFARMDEyFSEiIzP/2gAIAQEAAQUC7Ig4QenshGTTuQkXpyYkF04aY5dbrrmlDrrdNmmN3bmJBFNZCRamchFVQ5whHgizhRbFZDeiDzCPfHPMHoXIb0IcKVbvD5IUOjpooir/ALv2Vv1cGaKHoCSFM7kspgVuRm33+5jpt9ihCmCm+1lZpsen3nX3O6YedYcippsjs1qShMvMrf7+ImVsUhSVp9951tlqXknDXPAREm6E4y62817rzqGWpaQcOd8FEyLgLrLqHmvbWpKEzMis17wkNIrCeQpK0+1kUjt3PDY7I7Bz2cikN3Z8RjshvDPGcQgQYh1b73iB3VsPBEIKG4skN25XisbN2BXDMl7mD4yGL3wHgyMveDvGY4Xu52mTI3ULxtv1eNI3oLRlr/8AXjsSf/eiUe3g/wAdFvbvIVJvbuB5CMe3gDLHdULvRYAa7E0DYEmhB3Sn1469ZDqFtOe7ibusFlrnqX3lvlP1y7maxC6NpWSqbVK+7iTnoXPr15bvLfKfrl3M0w64w6udOU0q91K93H16ktIruuQ4AI4k2x0YUG0wy6+4Pjz6qcxz+TYkwW2gdlwh5cEelHAzCHOtmDPCPaE2upQ0Ic7SMc/lzHFUZGGC2q3yn65dzNMtLedVBH2Tf9X0ISpah4I1yycctqvY69ajAShOONXdEg8vaPcGK9NmGFkgACMgjuTEchQ8oC+uskjkt2rF+qUXb0L0t/8APLedoVhwl+MjmAkPOtsovNR1rsyoDqvmskCbGft8p+uXczWM9WqU/UlQAjhhAALATb7zTCPzcdQ0kEQpVrKtORFmU8LC9m/w4r0yp+RUQ/oxg1bzZDSX2L2va+MdUo3nNLf0y3naxgSzQhpCBRji3jHtEPLLDqXkFHu2+U/XLuZrGerVK9TqAE3UGTMSEKS+6S7ox6TXtb29bTAm5ne1ivTJBy7IOnFr+kpR/PYx1Sjec0t/TLedtb1u0izbWXPX9OG3yn65dzNYz1apXqYLW2MrK3tc3Sm90qEd242Wtf48LyNm9wYr0zIOkacY6rR/PYx1Sjec0t/TLedj7WufWVXv+S4bfKfrl3M1jPVqlepw/VayPq/BDdKyzp3AwjaPyKboP4MV6ZkPSNOMdVo/nsY6pR9tU7QMi7hNZbzqL6q03spOXNX1+G3yn65dzNYz1apXqcavZyFZS1dEjwAN7ELLV+gnBGouuQn0aktwYr0zIekacY6rR/PQDuylayIa7EhoxgNSyKy3nax4reI+SFsYG+04w7oigVnESsY6BVvlP1y7maxnq1SvU6iSrFgzYO+iKTdKtGPx6iSKyEqxMhwY+jXlssb9DODFemZD0jTjHVaP55N7pVFmIMFJYaJadx1m9xsfGReQMYjhk39U5bztRpiwiRCWSmTgRjErxxGsxjw6aHZaHaysptSbfKfrl3M1jPVqlep1EnrBfHebIaPjhTKVjiNYaAFbulKUJnZWzKeHEm/UvLGtYPgh5XcW5aZ3wfSCQoQpeRp1HFqccoQl4V0bIk1+fBovIb3s+64+4LkGoxKGqOJ0DPvDuDZEu1vz4NLyAOyTJ4l2173vehcgshiVOWeRQRCxCVZGnUWq616BCnxVj5F+vz4NO5CLaxs0WTbixNvVClGd4j/IRjO7gVJs7uf46LZ3iQ0Zax/XjsSY/rRJj70D435qNH3ULTkYu7neMxwTeDuCZE3wHxkMJuYPDkgWwK8VjYW3K4jhkFjPtLYe8Qw0t94EZAg3HkcfvDPiMcj93Z9nIo7YOeGx2O27ntLSlaZiOWC94SHjlnPISlCfbfaQ81LR7gLvgomPcOdYaQy17r7TbzUvGuAueAiI1w5xlptlr31pStMvDLY7+Ihlv0hKUJ7KVhWyKfadYc7php19yKhWx+2MFYLbkYQgfuY6EIIoMVgRvuD4wUyjoUsftQYUsigIwUPvSwRSrFY8qiQSx/fGALIoXHr0ICKLbwJAAZFPY8MqnceJtTkRIIpYRiFONON6W2nHKQEYtTcRILprHib0zjwyaHADH7P/xAApEQACAQMCBQMFAQAAAAAAAAABAgADBBEQMRIhMDJAIDNBExQiQlIj/9oACAEDAQE/AfWSBvGuVG0Nyx2hqufmZOmTBVcfMFyw3i3KneAg7dUnEe5/mMxbfpKxXaJc/wBQHPSqVAg5ypUL79anUKbSnUDjl0KtUIIzFjk+ArFTkSlVDj1VKgQZjMWOT4SsVORKdQOM+gnEqVOM58SnU4DmA51uX/XxrZ/10JwMxm4jnxlbhOYDkZly2Fx5Fs2VxLk5bHXaiyjJm8ZGXf12xw2JVOXPXuPblNuFsytWDjA9dI4cQ76UUDtgw235ctoKdHaVbfhGViDLYlekE20oUw+cyovC2JSpF59Gku8+hTbtjLwnBlx7cQZOJXpBNoBmLbAc2n06JlS34eY1G+tt3y5fH46UDxJzlPvEuthpafMrd5h/ypwnMVipyISWOTLj25S7xLrYS1XnmXD5bGls+RgyqvC2NTvpbd8uu7S27InuS62Glr8yr7kuOaei49uUu8S62EtdjKvedLXcy479BvKow50tu+XXfpbdkzhsyov1V5T7d5SUIOGVu8yi4deExrZgeUS2OfylVQrYEuPblLvEuthKNTgaVaPH+Qn27wBaKxm4jnSkMuJcjDZ0VipyIzFjk6LUZeQ0SoybQ3DmLUZdoTk5OguHENdzo1VmGDAcR6jPvotRl2n3LxmLb62wy2Zcrlc+RbLhcwjPKMvCceMq8RxAMDGlyn7eNbU/21IzKlPgOPEp0+M4gGPRUphxiMpU4PhKpY4Ep0wgx6qtIOIylTg+AqljgSlSCDoVKYcc5UplN+tTpl9pTphBy6RGY9t/MZSu/SVS20p239QDHVIB3jWynaNbMNoaTj4mDpgwUnPxBbMd4tso3gAG3Q//xAAuEQACAgIABAUDBAIDAAAAAAABAgADBBEQEiEzIjAxMkAFIEETFFFhI3FCscH/2gAIAQIBAT8B+8AnoImFY3r0i4NY9YuPWv4gUDgVBjY9bfiNgofSPhWL6dYQR0PmgE9BKsHfV4laoNKPKetXGmEtwddUhBHQ+VTS1p6Smhah0866hbR1ltLVHr5FFBtP9RECDQ+A6Bxoy+g1H+vuppNraiIEGh8J0DjRl1JqbX2AbOhKKhUuviX0i1dQjR0eODVvxn42dVrxjgBs6ErQIoUfGsQOpUwjR0ZhJzWb/j5GanLZv+Zgrqvfnpko7cohOupiWpZ7T9+cu03MdeWsefh94S6v9RCsxcZq25m+/IXmrMUaHDJsNabEGb4Nn1huyfX/AMmPmc55XljcqEzFva3fNwyr2q1yyly6BjL8hav9z9ze/tgyrqz45W4sXmEw+8JY3KpMxchrSQ0JAGzLM1idVz9bJHU/9SjMDnlbiw2Ncc3tTBrBJY8MteS3pLjuoz6f6nh9Q/4zG7Qi/wCe7rAABoR0DjTRVCDQmH3hL+20wPcZnvoBZh1BU5vyeGbUFPMJjvz1g8VOxwze1MDtnhndyW9k/wCp9P8AU8PqB9JjjdImGdW/Zh94S/ttMD3GZ/uEoO614Z58ImF2uDHQmOeascM3tTA7Z4Z3cnLzV6lNhos6z97VqXu1h5zMbtCZNRqfnErzUI8XSW5q60kx2Z69tMPvCX9tpge4zKp/VXp6zHyf0vC0OZVGZ8mzpEQIvKOGQ3LWZgtuvXB0DjTSutaxpeFlCWHbDhZQlnuEXDqEelHGiIqhRoQjcbDqMXEqX8cEoRG5gIRsaMrpSv28LKEs9wn7KqIioNLxzm0mphPy2a/n5Ga/NZr+IDo7ERw68w+NY4ReYwnZ2eGDbrwH42dbvwDiDo7EotFq7+JfaKl3CdnZ+ym41NuI4cbHwncINmXXG1t/dReaj/URw42PgO4QbMvvNp/ryKbmqPSVXraOnnXXrUOsuua09fKBI6iVZ2ujxHVxtT5TuqDbGW534SEk9T5oJHURM2xfXrFzqz6xb62/MDA+nAsB6xr619TGzqx6R82xvTpCSep8j//EAD8QAAECAgUHCQYGAgMBAAAAAAECAwARBBAhMUESICIjUWFyEzJAUFJxc7HBFDBCYpGhM4GCg5LRNFMkQ+Gy/9oACAEBAAY/Auha2kISdk7Y1Tbjn2jVsNoG+2Px8nhSBE1Up7+Uo03XF8Sp16DriOFUommlPfynH4+VxJBjWMNrG6yNa243941VIbUdk7eotc8kHs4xKjM/qc/qNbSFkbBYPf6qkLA2G0RKlM/qb/qNS8lR7OPTZLXlL7Cb4KW9Qj5b/rEz0OYgJc16Pmv+sSbXJfYVf0nLfWEjDfBQxNlvaDpHpIQ/N5vaecIy2FhQx3dGLVHk47t+EQXHllajielhxlZQoYiA1SJNu7fhPQypRASLyYLVFJQ1irFXTw1SiVtYKxTAUkgpNxHQC46oJSm8mJCaWBcnb39Q5Jmtg3p2d0BxpQUlVxHvlOuqCUJvMYpaHNT69R4qZVzk+sJdbUFIVcfeFSiAkXkxIWMJOiNu/qWSjNhR0hs3wFJIKTcR7v2Vo6pB0jPnHqf2V06pR0T2T7r2do61wW7h1T7O6da2LN49wt9dycNsKecM1KMz1Sl5syUkzEIfbuV9s/kEHVtfdXVfILOrdu3KzlLHPOijv6tS4eeNFffm8mk6DVn549W8mo6Dtn54Zjj2IFnfFvVsxDb2JGl31tUYcavTq92injT61vO4FUh3dXsu4ZUj3Gp53EJs7+sWXcSm3vhtqzTX5dOQXlOlZFsjKAlCiULExO8VBllM1H7RNNJQpWzJlBbcSUqTeD75bVmgvzhpuYklE/r04QxwHzqpAsy5CXdUrIwSArv9863ZJSJ/SHrObJP26cIY4D51B1pZSsYxkatJ7YTbBUozJvPvmbL5p+0UhRv5Q5qlMhOSnFRlHKOhJROU0mco5NlBWrYIBeeS3uAnGrpVvzIgrKOUQPiRWlppOUtUFUm1SwCrc0LyUJngpVsck8mSvOsJSCScBAKglkfNf9I06Vb8qI1dKH6kxlON5SO0i0ViGOA+dSWm05S1XCCdUdwVEjWEISVKNwETcyGRvtMaVKM9yIPJUhCtmUJRr2iB2haM+jqH+wQtztKJzVeIfSFMN85RT5xkI71KOMZJpE+EExkIpAn81lXtjCZD/sHrV+2r0qeAuyzmJ7oa8P1qSy0JqVGiMpzFZvjLdWlCdpMS5c/wMZKaQAfmsqQ60AlLs9EYGoQxwHzqTwKqpIH+w1BlvvJ2CMlpNuKjeYy3nEoG8x+Mf4GMlt9OVsNkSImINJoo0Bz0bN+c252VA5x8Q1Ko7atSgys+I1qozpmW+ad0LaVcsSgg3iP21elT3iHzzE90NeH61e0K57v/AMwt9dyR9YLrp7hgmvk3cpxnAYphJychCOaKhDHAfOpPAqqk+IagVDWOaSv6guqtNyRtMcq8sqVWKJSFlQNjZOG6JGFNjmHSR3e7PiGHnRelBOZ3tn0qpHiq84/bV6VPeIfPMT3Q14frEtsJbFyRKGGMLVnPEMcB86k8CqqT4hhlqzSWKkMg2Np+5zApNhFoht4fGkGGX7LFZOctvsqIzT4hh/8ALzzBwGqkeKrzj9tXpU94h88wd0NeH6xRwbuVT51AYBsSzxDHAfOpPAqqk+IYo3HU53J8s2jeGIR4o8jmtt9pQEUhJv5Q5p8Qw/8Al55g4DVSPFV5x+2r0qfGxxXnW0gCZUsCprw/WAqcpGcBQuMMPYWpzxDHAfOpPAqqk+IYo6zg4Kg5bJxHlmstdlAEMt4qXP6D/wBzaOkf7BD1vOkr7Zp8Qw/+XnmDgNVI8VXnDNsgrRqU5LQd0h341+1rGgjm7zU14frUlJOm1oq9IWybCeadhhTTqclSbxXkWhsc9WyEkq5RtXxSxqEMcB86k8CqqT4hqQ58Vyu+JI/FRaj+oKVAgi8GsPuJ1KD/ACNRCeY1oj1zWbbpq+0NOSElIl9M0+IYf/LzzBwGqkeKrzgKSZEWgwlwEZXxjYY5N5AWmNVSFo7xOAXnFu7rhAAAypSbbEAw14frUHU2i5SdogOsrmPKNci0XKF4jQpagN6JxrXnHO7Rjk2UBCRgIRRUmawrKVuqEMcB86k8CqqT4hqne2rnpgOtKykmJuIkvtpvjRpagN6JwC6pbx2GwQEpSEgYCFUajK1tylD4f/c51yySUS+sNu2TQvzzVNKay0EzsNojkG2ihJ508xD6BMpw2wcijKy8JmyFLVzlGZq5VheSfOAKQwQcSiLnv4QU0VqXzL/qC48srUcTCUvMKUoWTSb45UpyQBJIr5RlwoVEqQwFb0GUXPfxjQQ6o7JSgpYSGRtvVBJMyakodo6ipIlNJvjlCnJSkSSKkvotKcNsaNFVl71WQVqvJma8thwp27DH/Io9u1Bi57+Eatp1f2jJTJlGxN/1z3HbNNflDzWJTZ39YstYhNvfU81gFTHd1ey1gVTPdW1SRwK9Or3aSeBPrW4ziRo9/V0hDbOIFvfmcokaDtv549W8ooaDVv54ZqkDnp0kd/VqUHnnSX353LoGrd+yuq+XWNW191Z62F3Kx2QplwSUkyPVKWWxNSjIQhhFycdvuPaWhrWxbvT1T7S6Na4LNw917U0NUs6QlzT1P7U6NWg6Ilzj7spUAUm8GJi1lR0VbN3UszYwk6Stu6AlIASLgPeKacTlJVeIxU0earqPFLQ5yoS02nJSm4e+LbqQpJvBiYmpg81WzceoZmaWBzlbdwgNtJCUi4DoBSoApN4MF2ihS2sU4p6eHaUChrBOKoCUgBIuA6GXaNJp3Z8JgtvIKFDA9LDbKCtRwEB2kydd2fCOjZD6MoYboy2JvN7hpDpOW/NlveNIxkMIyRjv6TNaMlfbTfBU3rkfLf8ATooU5qUfNf8ASJoRlL7ar+m65lJPaxidGf8A0r/uNawsDaLR7/VMLI2mwROkv/pR/callIPax6i1tHQTtlIxqnXG/vB5N5tY32R/j5XCoGJKor0+CcaxtaOJMq9W2tfCmcSTRXp8Eo/x8niUBA5R5tA3WxrXXHPtGqo6Adsreh//xAAqEAABAgIIBwEBAQAAAAAAAAABABEhMRBBUWGBobHwIEBQcZHB0TDh8f/aAAgBAQABPyHkizd6HgIqFFmg4Avij5BoGjJg21IEAYSh04ZQPQoc0WuqkcQ8WuhMnCzRPUgRAjKD4agaMmTbWoQWaoNfBEmeFh4GPQrhSCJ4BPyG2yD6ni8FlD98YAZRT4Atsi+qQoRKA4HnQxsTExWYp+LtRR9/hESEJJmSYnkyICEESIMQn4s1FD2+kGFp4H9YczZOpM9grW/KA9WCv5e9d/KMyvFWTqSPcKuWvs6b6m5TCtc2SmtIus6T4m7kwl1chgApq2Er4DPn5K2E76DNBLq5DgjkBLWdAuOc+69p0ECKY+69qhLWf9gLADkVeT/uv6G04h/NfqhYgcFf6BLq5DABERz9rL9OigZnwsv1QS6uQ4I/N2qQdgDXo7dXknA7HX8pVYhviekzqxDfEfhFpBC0qCimmOkxbTCl8ERarHHG46QczxLz0uNx0DIeZeOIBNVl6vCa7x6X2ggEgllyvGfC8Ooe+u9YdNaG0fdXeseAMPghtKARJJJJyYk29NIgIxBcGxDh8kFQQNJXaDej26eV8g3q9KDJRdfACA06fFCAPAHVBNuSC4bUBmeoXJ13ZxBoIHMIDg5xq2B9W54FIhhANjI+1NmDI0V+gEyC03IsZSBEBxdFEM0wP2cIueZ4sD6umPIVBMEq/A52R3WQWy2KHDiFtTP6ogDJJRvU37OeQCimSVXkp6weQ3OpHdZBbLYokylBNeWbH/ERYBzkMSf2AUXaxGs3DhcW9cIKIjFoewIMNjkWXwQATajbIA5030YyVYThMihkJqIwtImKauMA7IWG5592cIwLGB4BXDFwyZ2ZFIzDgguAtFJYLMAOShpc29BVzGEzKFZ5b/Mq/wAQzHeyiR3WQWy2KDYiGAhpDYdy57QQEgGILEGmXyxuSn0ECR5A+pqv9htU4BDQFI4hGbhxHH7xsJuAxvLe1CZs9L8IgX2kjGjM5kIXKg/HdjtKIwCFYXyAmYpyAF/Z6GQDmDIPIBrRJoAhBgGBjwZRotveocODACsm5TVctFcLAj8dWIIscMWcFGiq8YABf5UAtBUbkAUANLypHdZBbLYo2S6gAAAAQx3oa5FblbKdft22xX+PaW3/AEot4WASZ7Oi0YkwRApumJ3JbF13FAB8tL8W72ChrI8WKs3UsGcCQxNm9lOPp4oTRBGLqXwgoTWSLb3qGHVouqeZqIS+a1UPKcJ2ciwUmTBsCZc9VynsoOuYzJUjusgtlsUbJdRs9tAWJnAiLMA9oV3xZgj0p1mQuAqpaMOsitHRAIAEGYKaKc8VYfnu9gQxXDItUu5c0uAseZeqN5tqXwgoTWSLb3kwSuZS1SELEwLgrgWgNTxSO6yC2WxRsl1Gz2pzQQEIMiHjkhJFmJSNlTZ8BYCW4KiECTJK0whkIOMZriHGh4ozPlpbh3ewIiGC0AycGy3UbzbUvhBQmsmW3vIRgJAIPZQSUTqQvxSO6yC2WxRsl1Gz2rKdChLis2azicRAbPSyb7YeF5f3w7vYFktDg2W6jebal0A5eYVJoMELYoSW3vIosmThUxR2XA4NyuBFhXMR4pHdZBbLYo2S6jZ7UMacZiHuiK0AXqeAjTzwRqDmoIpl3MOIyQ2EwM9zhMJuSxuL+k1YvAfhbvYFktDg2W6jebaeRByb3iGbUDIyKZHmONL6ocDxdvhr2o296gREM6Mb3hHyEQSokUUgUxKW4moR4d0YCwABjWCFI7rILZbFGyXUbPbQ4uEN2DP6oQByMWe3Ejd3YBiDTOGZzUyF4toIKCB4Vmt504QAFnmMjVgigmSVeBHDu9gWS0ODZbqN5to+Q9hUUxzQBWqPDzFjUbQn9EpC+UToju8J5qzUwH+BGKTIBW3vUA7hRG4oQA8xWVhFRQ0HhMY2IiiNRwIvLhFgbsAAfeaDI2kAuQqukAd4qR3WQWy2KNkuo2e2hp3bC0vF6HbHgQuysgf3ijiNUQAvLhC7j/BH1QgRADAJ+CdwdsOJzwQUUwSq8FAZIA9bQatwnNTfgEZvSI7XBIwSWLsOAcV5EWAEMqrdJxYRRA3JMzRJc0PcMsawFhCJFZ5OPBW8fU8TxHuH0psCiIIHNwgF5imsq8rC80hdqgke4rTnKBbGBQaDiO9qODc9zOjNXbgaBGbEOSZk0CXIYWYJxQAG0OLC80DNEwRgFYT3KIMRaokjnEvNLvCZJ9wKCHgLwVvH1ATxeA1GpyoEsXf4bjCwOYetgbV0yQJJhsRGY6hen3cBx2onMoyUPWxCiNenwQcDsInRCVBWaBDmft08rNBvZ6UhhcUVgRCIIJBDEQIs6aASAHJgBahw+KO0ongGVlD3VXvHprQ6j76r3hwtnri5VjJd4dL7RQAavL1WEuKNx0k5nmfnpcbjoIyPE/HHAJBAJlUVCNMdJh2mFEpBEplWfwmBgO6I6TIDAN8T+TtUgbQOvR2KtR2ANfzCXVgHBCamfuRfr0UQGfkRfogl1YBgB+gOQTETNLn/ADN/Q61n/MXoGIJgfsBa7IFoyu0T16CGjKbRPRCWu3IAJdWAcEKaojM+o5+SpjK+AzQS6sAwA5O+hJfiVNK1zZJK0i6hJ/qeWZNBNIlcak8XKyCvBXcw0RVLIKsUyaSaZ7jXzII4ZMVqZE3WEPf4RBBIIIImDyYBJAAJJkAmRP1hH2+kCFuYmCznbrTCA4hBEhEVB9Pid2xVZg/djfFVmFFkBAVh9vivNMoniehGHJokMwEKLk0HLX1T6HA4YTJsrQ8OTroTSi4WhZkhqpqJLTQnlF4tSDliZfCfR4HLCYNlSFRJosWvqjDg0Xu8jyf/2gAMAwEAAgADAAAAEPPPPPPPOMxfLvHvGM9PPPPPPPPPPPPPbjPPPPPPPPPDPvfPPPPPPPPPlPPPPPPPPPPPPPOvvPPPPPPPffPPPPPPPPPPPPPPLdfPPPPOPfPPPPPPPPPPPPPPPPLfvPPPTPPPPPPPPPPPPPPPPPPPDPfPNvPPPPPPPPPPPPPPPPPPPPPvONPPPPPPPPPPPPPPPPPPPPPKNJ/PPPPPPPPPPPPPPPPPPPPPPE5fPPPPPPPPPPPPPNuevPPPPPCfPPPPPPPPPPPPPPPrv/PPPPPPFvPl2uuj/D1tApdvuCefokfPPvPKtPJAfvA1/HfPfq66rfF3/PFvKvPFwuPAk4vPPPq65X/K3PPtPKvvF1evklV0clfq6/mPkf8Azzny7zw95/0x691yxy3zz+//AM8hf88888888888888888888888H+c888888888888888888888se86888888888888888888888u88t48888888888888888888wd888s9888888888888888889c88888Z98888888888888889F88888888c8888888888888oe888888888te48888888880ud888888888888+7d1y8y4t388888888//EACcRAQACAAQGAwADAQAAAAAAAAEAERAhMUEwQFFhgbEgcaGR0eHB/9oACAEDAQE/EPmBaqZXmmnKmoKLauAWjNAU04MyvJALV8UBbDMj5i1u+EtbqG5HzAFnCt0L9HTjL9HSW7gO4pYDPkLAZzuL5XNEGpyQDUlTfABbG6bblG6beALMawPnlrxfjAEW0ZXvyzCdoADeZK35jN20rejj1eygKomm6+d71EsHfj6nj3KZ7Q78+wd47ThsEgNVUboX9zpFBJbwMd+C/QgINorlkdZoX/LENr+G477U1PHuCa3YOMoqNYVbNAJ/P+xxqmLoOPpjAG+uD05toKLvjNXj/wBwTMjb3EVustRnN8DNTx7n6Cfugqe0VjoYK21DcaYmkYemaP1/eHuml94w6vqKk94bU+Gp49z9BP3R5XeBLOuBbu0dvA2CUDvh6ZofX94e6H1zBG3chfVfsohtNcFus0m9JG2yEa6M1PHufoJ+6FnaM1rn7g7Sfszm/wCxFW+FA7yt6sLUZy/OeB6sc5q2BVdRlVrHbUgo2QKruH1dfWFksoislBfTDL1FekWt3je9EyVtzH26AFbxle3LMJ3gANsLwPnlqhfjEBTG6bblG6beAKPhc2sQanJANSVN8u4pQDPkKAZzuLgU6F+jrxl+jrKdq4QCmG5vxFqNcJajcEzfiAKOKBQuZ1knVk1BRLUwG0JoCmvAmd5oBQrgf//EACgRAAECBAQGAwEAAAAAAAAAAAEAESExQbEQUWGhIDBAkcHwcYHR4f/aAAgBAgEBPxDjOsOVHIW6nknb3upEN7qRADCbAFTIbWU+kb+91HIW6OsMeaVYco0S2gUBDlREEaJfQoiwx5TIlqUxBjnzmIMc03JaHkZfCZQKNgOgJRuCs/lI8TQyqUCjYDoiUbgp4ZUPAYUwoJGdekITnRENMGLo0oDpnQrQOBxTCqCHTVEEc0wKOZXdRDMrk+Zzb0897MUACRgE+RG423Kb+hMPS8ecVcWRAhZ0XE0hxsPS0UwjIYVfo4aO+XkqikDssiBBEyKOJmAjgUYCMx1MIKCsYlRTYw0D/qCAHcMgmQVcWRRtAqUCOiMAmUeT2Rgwt6yQQFjnTFxzDG8FTSlgAhhkU49FsxhJ9vC26A5QnYfxDQGAR+Jwh0bAK4stkVt/KKBrEoKIfhgNjYG6OZnX6xYTmMLwW48DCyPK9TRF2xhEH58JhDJCCDV8Sriy2RW38oS/p5QihkMBN6oCA+Tg4nIJ16WhheC3HgYWR5RitQ2yIm6EIhc5+G9CYUwMB9Lbqh0lxoVV0hjinNBk8q4stkVt/KLkkvxHeOG4QYcF/ooSAfwaoQkDBx6XgnzKb+nBvzhMGYYAjghAMGCjcTOqKuz/ACUJQQkgATAIAMQ4RF2b4KMPF84TYkI0gp5Yz4RKJnVARke6ZAwxbc5t6FHMruohmVyOKYEJVOmIqCOaYcHRrRHTOhSicTCmBBIzr0hSc6I5ph4GhlUIFO4PREp2ATwyoOLP5TCBTuD0BKdgFl8JDkOiWoT0OOVec5DjlVOiWg5RVxijQL6j8UVDlQUEYwW1KKuOeadcYqGQt1LJG/vZSYbXUyPhMgCkzeylknb3soZC3R1xzyP/xAAqEAEAAQMCBQQDAQEBAQAAAAABEQAhMUFREGFxgaEgUJGxMEDwwfHR4f/aAAgBAQABPxD9FQy4poWoJjSSTMCNUoNkmrYIZTHMGocUTs0JDslN9mmUHrZmgg2QTo6MPFGAzACPk8TBmQE9ZFNFuRMjo08U32aZQOliKHJondoWHYKBIJqhuglMc0KONCC/QSxEiNYihHD7C0YHKO0me7BzpRfKyMpyT7s50/KmdGRomFnegDAHQ/Kg5B6lPkUmNORqmA6UNqldGxzT6+FFG4SO8ie5Jz/dhDhh/wCY80d6hnsLgJ7HSHVGrsFkHqLd/TWC0oHQS5UM9hYBPc6S6kVKMiYZ9NBzT2/Zn1MmRmhXXSoNykwPSR43Xy0qqlVZVbrz/XFECiMiZHlUG5QYPyXjdbNQ6mDInRrrr+sxH8E/Myj2FjV0okDAu8GACwcj9sADIu8ORGycmmZ7km5GFbm7Ojp+mz9JAK6q4KnEhhW2g1j7p0xQAQEB+6gkJI1GLAUhlodY+yNcUT9JBIkRMn6E40hWD/XYLtZfquGG3nYY6pfYcjsHLLfxuMdUNTDSVZP8dxufmmop+wf6uAytL7r7/wD1fjBqvsRhIlBmPpJ/h0Qqa37D/EwmRt+RnyYgRKroUvMEaki3PWhod5fZTyInlk25Y1NBvDRPkzAiREyfiavH5NB6Wst8jkT7NAWYdj6psN8Lmwfhe5ljJnkWdLgbXdqAAAgPZ0ERJHNPJhJSI4BnWwO9nf8ABKDZRhew81goNCwiCcAGgAB09pBwMoknCJqIo9anQL1ZRsvMZPXcugttiX0c+b2u1dJTbEvs53eow52VPwE9hvSqqlLKuV39rFEUoZEyO9KbdBF4CO7l6QjXsbZPog7mR9tKNeTYD7L9jAPoSypqYxn5RY0FpuilGUsr3fbVgHAyhkezQTRFRtn5FOSPFSeCKGFuWzh8oN/bxMpAIsXC5ZfOXbgoTMc6UaQrbs1m0p1n297WsydysWy0pSDmmEi0BS4w2YB6FBAGxHt6SO4imQqfhK4wWBR6UAYO05RIbSD1P3b6Cuga1AFKlgGEHExnSilMLmwKBDkh1vPOs5CWB8voP/hLQCJJeNr0fFLfKdCH9nCX/ME8KBggU2gDo0rpNFNynYwc+f7vjvuvEfXGgJmN6YkxdpZ9uE5C6MgZvqiPKI0/Mp7FFEFDsZOXKjEUyyzZX8/u+O+68R9caDuFlu+RMI6jR2/gA7QsKh5hanfzmSmVXVfzKot0OFr+KuIhQghz4Hpn7kuudgVQRbWk3o90EEjEEIO9z5KxOdlRzXA5sFG+grWyuSW/20pKQFgI/JNS2uVMa8uxBOob0QkjJwZuhIwsSqtgAzTCq4b0AC96CgIMIkI7cVAVsFBc45mXFCjos7hRIEJ2uE1LOzucZ8QEI2Au1qs7nhEzceUKNGhmtwP9lMR+G5GeVDOKEoXvIOjJF88PHfdeI+uNDUp7xc5bAAquApWC4WjMSJLpKUsB4CERhHmPFSJwi7kF9SjDIIvQibJMu4jFKUULbzymUVG2grJqKIfDVwtYVkMW2MYg4tf1lwihhBvwqtUsM0nh59LAEK3na/yhPg2SEVIvAC9qIDAWcIXbQNDAVnA50JkE0ERUOrhYhJxpSCQklNBhLVEAhaW2i47vD+dvRoI5QYCfEBYSRslAACAj+Fee4TgYcs+EgXX/ANoegGx3InoGDvNZIBm6UutsUxmJJiHIkE51LFUkedkg1yoOolE4awLidgwtojvXjvuvEfXGh/C2o0MFsCA4AxSNFSCzXMAZXuYIEzFzdDkgKuxOIwWQtOcmKRUmjameYkGPkJOdKAHsDIcxzSv1r9uS6NdGS0h6ScgXN44ePwGc1rxzCahkDDE3tFNyG5S8Z95yklZk10E5UYZc0mARMcs9qdsMxCIwyaNq/vb8H8ndxwda/tbFee4S1scroLE+XcbVKvACwowPNQd6QmlunaD9uXLwbiNxyb0CSUrGTMzF15lrJqNipJiSErdgsWI1zXjvuvEfXGh/C2o8JsVCso8AJ1jY3aSaNiaoweSJXQGrOtCwOgLC7Y4f9p4oF2CW1ghlLNtSi7ugJEciUA8gRLcxzSdI3/IZVYBySRRfSr6mourvxNAlB5cQcf3t+D+Tu44Otf2tivPVTcsCZpLE+aihskCwDBYxQUWcCSBbyeT1eO+68R9caH8LajwmBIL1yQY3Cd6AAMaUoxFHTWnZtg6SPQO8qyKpGTFwp6F6ABbaXmjSLgpDB0H5j1TELjMM8vHqMu7JZGyafFPqmcf3t+D+Tu43g5lfxtivPVAmVCRG08FfIk4Jtvg9XjvuvEfXGh/C2o8ZrGDpX97b6DJU2Qj6fUjk5BL7Ry81dJClJDnwPWZDvqmcf3t+BFxQJhhcS7KCgSNpeU0IAEGleeqcwjNDAZI2io53xolEj8NFES412kTcxMHJ9XjvuvEfXGh/C2o8JmhnUEMr77XdqMRVgBpACxHWCb6AJhlsGroU4rt9SBMml6WrJkWACd4fHpTgFHCDfhUYimWSLK3j1mQ76pnAIUvHSHNJ78JvbTDGGs3/APAW4xiOuwgobgk6jg89V1JNqL2ISKA1Wb+Q6RRBKD5L7cjRjRTWvqO9BHUcjrxF4fJbFhNl6F7StqRdenosxYYFGbw4ivHfdeI+uND+FtR4TPWKcYyVcMdE4cmmeYigFhGMDyFJobHCyJo8Uc23CgREsN9Fo3rBTV0442Q5YHdr6VcTlBk1vNOybYRcr2If/PWZDvqmcDbKpCTIneoEzO4NxNnI4SluQQbhhMiblRR6lOhoF1bdWaXDsrC5IkT2WM1p9hNixYw6vYlaiWlkYlK89wpx/JoEbnIZHR5LQqtLkd8g2e0l6napBus21HJkq1iMIeoB+CkTIsmKLDEy1kFOuZAauVcrzaAEWVIBhzXRoHOvHfdeI+uND+FtR4zPCXDiQY2hL1LOiSXbecJkTCNyhm24TFaCXEILBxTC+28dQT8FDFW8DM5ydlFHWqFg2AsUJfWsIXBww8t/UprFRNivYS8+dAWBtGEoHaCenpZApiZCzZEGpEc6ZQgvuACwSDMzaPQrT5OQEKYs5vG1JgC0v5sh98qIeVQCxIMXW3AVYNxdZkWT60isHwD482kvpL1r/gKPBSBxQ0BrnK1rNE52J5jQNgmwWKMY0HAAKCHcLVZPGmU64Lqs8tOIpnErZ2Sw5JQCMC6LSbRrKPYpzIC5Fh2mknSEIj3Qpw1JCRohyxsPJpQBH5QyquVaSRL3ItVnix4AkXixi/WlFcakjK6isciI5tLOJFBZCpgfsG+K0kSEbquYdvindtpqiuevFtD7CHZbOetRJWQJZXu5zoLX/AUcF8yGbLqz2ogpKJFLiXjOGWvrUMnAMIBdpI60iMeEC2GWxIHehkHcn29YHYTSCUsIUsMlmEOhQlCDOjTjBELdmsWhGke3rawmTu1m2Gs0IBEcAM5F5AktsZO7bb29SeAaWHDbODyh34pIE0E5T8gMXhSmbKUZRZOz7a9BQDKWA7tFYUVm+flQnQD0QoaxlgwdWO5oe2hGvJyyfRfsZH0gQvaQ/AT3DpSIoFDCOR29rBUApYAyu1GHOyo+Ajsd/UmLGy2Y/Rz5Pa7l0llsw+znzetqW0AR3GdRvRyXhMk5EdRETr7SSk5TBOVXQAV6UhLZRC7rzWX8CXkMLEEqBrcTck2oRBGR9nUBVgKW0hnZlhBNLC7EG/4pu9DwutrDfCjU9n5/9oPW9lvkcn8bP0zAiETUpQj0Qsm/LGjoN5PZTpymEkX561dDvBRPkxAiADQ/JDv/ALZP8RuOiUjBHbz9Z85PYyoAO3j734y6DBT/ALYP9Vuuq/mXe4KyfY7JcrAEwy9BjY46pPYcETTD1OdzjqgqNe4rB/rut39Bn6SCWRHJTeETQs21M7ms5oRJGR/dUCVgK5e2R5vq53TpmifpIBYAMH6asuQxcyoHeLOprRoGEd4cIlk5n7ZoGUd4Mqtg5tKiJLFyKCd5saGv6wR+LJLESV1Sl8lxHSTjzu5FIioRGESEf1wVAFVgAutKWyOI8ljzu5NJH4MksIlrr9mdBlo/8x6/JRId/bBPUe57BTNmgCJ1G5+mzZoAq9Au0SHf3wT1DuO41EgzD/zHp5/dUECQHaRPOGTlU5z3IS+gbb3blPLKmh51SwM7UI4R6flUModaaWFNDzolxI3qe9LkrfUNtrN2jBAgB3kzzgg5ewoIiSOedIH9cgxBMS23aQpzAW2WYhyEpmDybVhYdVpZuP7BcinBoDAUdSnmkwSSQkvgcU0SEpBfBq2NFgKOpDzTzYf0C7NMweTesLHqNAGMwFvkgYclaAP5ECUhiZLbNAAAQGP0v//Z;" vertex="1" parent="1">
          <mxGeometry x="245" y="111" width="30" height="30" as="geometry" />
        </mxCell>
      </root>
    </mxGraphModel>
  </diagram>
</mxfile>
